<?xml version="1.0" encoding="utf-8"?>
<!-- Generator: Adobe Illustrator 22.0.1, SVG Export Plug-In . SVG Version: 6.00 Build 0)  -->
<svg version="1.1" id="Layer_1" xmlns="http://www.w3.org/2000/svg" xmlns:xlink="http://www.w3.org/1999/xlink" x="0px" y="0px"
	 viewBox="0 0 1000 1000" enable-background="new 0 0 1000 1000" xml:space="preserve">
<g>
	<g>
		<g>
			<path fill="#21324C" d="M443.8,656.5c-4.2-7-15.7-13.6-29-13.6c-17.1,0-25.3,7.2-25.3,16.2c0,10.6,12.6,13.6,27.2,15.4
				c25.5,3.1,49.2,9.8,49.2,38.9c0,27.2-24.1,38.9-51.3,38.9c-24.9,0-44.1-7.7-53.2-30l19.2-9.9c5.4,13.4,19.5,19.4,34.4,19.4
				c14.5,0,28.1-5.1,28.1-18.3c0-11.5-12-16.2-28.3-18c-24.9-3-48-9.6-48-37c0-25.1,24.8-35.4,47.3-35.6c19,0,38.7,5.4,48,24.2
				L443.8,656.5z"/>
			<path fill="#21324C" d="M550.2,647.9h-38.7V627c35.2,0,65.1,0,100.5,0v20.9h-38.7v101.2h-23V647.9z"/>
			<path fill="#21324C" d="M747.5,726.1h-63.8l-10.5,23h-24.9L703,627h25.1l54.8,122.1h-25.1L747.5,726.1z M715.6,652.6l-22.7,52
				h45.4L715.6,652.6z"/>
			<path fill="#21324C" d="M936.4,749.1H909l-35.6-40.8h-22.2v40.8h-23V626.8c19.4,0,38.7,0.2,58.1,0.2c28.8,0.2,44,19.4,44,40.5
				c0,16.7-7.7,33.7-30.9,38.4l37,41.7V749.1z M851.3,648.5v39.1h35.1c14.7,0,20.9-9.8,20.9-19.5s-6.5-19.5-20.9-19.5H851.3z"/>
		</g>
		<g>
			<path fill="#4897F7" d="M648.1,466.6c-9.6,34.9-30.8,66.6-60.7,87.1c-53.3,36.6-130.1,34.5-181.4-4.8
				c-43.3-33.3-65.5-90.8-58.5-144.6c7.2-55.1,47-101.4,98.2-121.6c18.5-7.3,38.5-11.1,58.4-10.6c64.6,1.7,125.6,48.5,143.9,110.6
				C656.1,409.9,655.7,439.2,648.1,466.6z"/>
			<g>
				<polygon fill="#DFDF00" points="500,303.2 500,303.2 500,303.1 462.5,384.3 373.7,394.9 439.4,455.6 421.9,543.4 500,499.7 
					500,499.7 500,499.7 500,499.7 500,303.2 				"/>
				<polygon fill="#DD9E00" points="500,499.7 500,499.7 578.1,543.4 560.6,455.6 626.3,394.9 537.5,384.3 500,303.1 500,303.2 
					500,303.2 500,303.2 500,499.7 500,499.7 				"/>
			</g>
			<g>
				<polygon fill="#21324C" points="323.4,395.4 301.4,370.7 332.5,367.8 363.6,274.3 406.7,288.7 413.4,268.7 350.2,247.8 
					316.9,348.2 258.1,353.6 299.6,400.3 267.8,496 330.9,517 337.5,497 294.4,482.7 				"/>
				<polygon fill="#21324C" points="741.9,353.6 683.1,348.2 649.8,247.8 586.6,268.7 593.3,288.7 636.4,274.3 667.5,367.8 
					698.6,370.7 676.6,395.4 705.6,482.7 662.5,497 669.1,517 732.2,496 700.4,400.3 				"/>
				<path fill="#21324C" d="M578.5,459.5l85.1-78.7l-115-13.6L500,262.1v0l0,0l0,0v0l-48.5,105.2l-115,13.6l85.1,78.7l-22.6,113.6
					L500,516.6l101.1,56.6L578.5,459.5z M500,492.5L500,492.5L500,492.5L500,492.5L500,492.5L500,492.5L500,492.5l-71.6,40.1
					l16-80.5l-60.2-55.7l81.5-9.7l34.3-74.4l0,0v0l0,0l0,0v0l0,0l34.3,74.4l81.5,9.7l-60.2,55.7l16,80.5L500,492.5z"/>
			</g>
		</g>
	</g>
	<path fill="#4897F7" d="M121.1,713.2H86.6v35.9h-23V627c19.2,0,38.4-0.2,57.6-0.2C180.8,626.8,181,713.2,121.1,713.2z M86.6,692.1
		h34.5c29.5,0,29.3-43.3,0-43.3H86.6V692.1z"/>
	<path fill="#4897F7" d="M321.5,749.1h-27.4l-35.6-40.8h-22.2v40.8h-23V626.8c19.4,0,38.7,0.2,58.1,0.2c28.8,0.2,44,19.4,44,40.5
		c0,16.7-7.7,33.7-30.9,38.4l37,41.7V749.1z M236.4,648.5v39.1h35.1c14.6,0,20.9-9.8,20.9-19.5c0-9.8-6.4-19.5-20.9-19.5H236.4z"/>
</g>
</svg>
